<svg xmlns="http://www.w3.org/2000/svg" xmlns:svg="http://www.w3.org/2000/svg" id="svg961" width="48" height="48" version="1.1" viewBox="0 0 12.7 12.7"><metadata id="metadata967"/><linearGradient id="e" x1="4.611" x2="7.333" y1="4.347" y2="7.068" gradientUnits="userSpaceOnUse"><stop id="stop911" offset="0" stop-color="#fcfcfc" stop-opacity=".5"/><stop id="stop913" offset="1" stop-color="#3daee9" stop-opacity="0"/></linearGradient><linearGradient id="c" x1="16.5" x2="36" y1="15.5" y2="35" gradientUnits="userSpaceOnUse"><stop id="stop916" offset="0"/><stop id="stop918" offset="1" stop-opacity="0"/></linearGradient><linearGradient id="f" x1="3.44" x2="9.79" y1="3.175" y2="9.525" gradientUnits="userSpaceOnUse"><stop id="stop921" offset="0" stop-color="#fcfcfc"/><stop id="stop923" offset="1" stop-color="#eff0f1"/></linearGradient><linearGradient id="d" x1="9.525" x2="10.583" y1="9.26" y2="10.319" gradientUnits="userSpaceOnUse"><stop id="stop926" offset="0" stop-opacity=".467"/><stop id="stop928" offset="1" stop-opacity="0"/></linearGradient><linearGradient id="b" x1="11.642" x2="11.642" y1="295.942" y2="285.358" gradientUnits="userSpaceOnUse"><stop id="stop931" offset="0" stop-color="#2980b9"/><stop id="stop933" offset="1" stop-color="#42aaf6"/></linearGradient><linearGradient id="a" x1="1.058" x2="1.058" y1="295.942" y2="285.358" gradientUnits="userSpaceOnUse"><stop id="stop936" offset="0" stop-color="#e74c3c"/><stop id="stop938" offset="1" stop-color="#f48664"/></linearGradient><path id="path941" fill="#232629" d="M6.35 1.058l-.265.265v10.054l.265.265.265-.265V1.323z"/><path id="path943" fill="#232629" d="M5.82 3.175a2.377 2.377 0 0 0-2.38 2.38 2.377 2.377 0 0 0 2.38 2.381c.564 0 1.073-.202 1.48-.526l2.115 2.115.375-.374-2.116-2.115c.326-.407.528-.917.528-1.48a2.377 2.377 0 0 0-2.381-2.381zm0 .529c1.027 0 1.853.826 1.853 1.851 0 1.026-.826 1.852-1.852 1.852s-1.852-.826-1.852-1.852c0-1.025.826-1.851 1.852-1.851z"/><path id="path945" fill="url(#a)" d="M1.587 285.358H6.35v10.584H1.587a.528.528 0 0 1-.529-.53v-9.525c0-.293.236-.529.53-.529z" transform="translate(0 -284.3)"/><path id="path947" fill="url(#b)" d="M11.113 295.942H6.35v-10.584h4.763c.293 0 .529.236.529.53v9.524c0 .294-.236.53-.53.53z" transform="translate(0 -284.3)"/><path id="path949" fill="url(#c)" d="M28.363 14.637l-1.416 1.416A7 7 0 0 1 29 21a7 7 0 0 1-7 7 7 7 0 0 1-4.947-2.053l-1.416 1.416L28.27 40H42.5V28.771z" opacity=".3" transform="scale(.26458)"/><path id="path951" fill="url(#d)" d="M9.415 9.525l.375-.374 1.38 1.38h-.749z" opacity=".2"/><path id="path953" fill="#292c2f" d="M1.058 10.848v.264c0 .294.236.53.53.53h9.524c.294 0 .53-.236.53-.53v-.264c0 .293-.236.53-.53.53H1.587a.528.528 0 0 1-.529-.53z" opacity=".3"/><circle id="circle955" cx="5.821" cy="5.556" r="2.117" fill="#3daee9" fill-rule="evenodd"/><circle id="circle957" cx="5.821" cy="5.556" r="2.117" fill="url(#e)" fill-rule="evenodd"/><path id="path959" fill="url(#f)" d="M5.82 3.175a2.377 2.377 0 0 0-2.38 2.38 2.376 2.376 0 0 0 2.91 2.318 2.41 2.41 0 0 0 .95-.463l2.115 2.115.375-.374-2.116-2.115c.326-.407.528-.917.528-1.48a2.375 2.375 0 0 0-2.381-2.381zm0 .53a1.847 1.847 0 0 1 1.852 1.852 1.846 1.846 0 0 1-1.851 1.85 1.847 1.847 0 0 1-1.852-1.851c0-1.026.826-1.852 1.852-1.852z"/></svg>